<svg fill="none" height="532" viewBox="0 0 600 532" width="600" xmlns="http://www.w3.org/2000/svg" xmlns:xlink="http://www.w3.org/1999/xlink"><clipPath id="a"><path d="m0 0h600v532h-600z"/></clipPath><mask id="b" fill="#fff"><path clip-rule="evenodd" d="m368.153 457.672 17.746-3.013 1.172 6.902-8.873 1.506-.986.167.167.986 1.674 9.859-7.887 1.339zm11.067 17.393-7.887 1.339-.986.167-.167-.986-3.013-17.746-.167-.986.986-.167 17.746-3.012.986-.168.167.986 1.172 6.901 7.887-1.339.986-.167.167.986 3.013 17.746.167.986-.986.167-17.746 3.013-.986.167-.167-.986zm9.004-12.686 7.887-1.339 3.013 17.747-17.746 3.012-1.172-6.901 8.873-1.507.986-.167-.167-.986zm-.986.168 1.674 9.859-8.873 1.506-1.674-9.859z" fill="#fff" fill-rule="evenodd"/></mask><g clip-path="url(#a)"><circle cx="584" cy="272" r="9.5" stroke="#b794f4"/><path d="m195.5.5h19v19h-19z" stroke="#b794f4"/><path d="m394.849 335.707.354.354.353-.354-.353-.353zm-6.364 6.364-.353-.353-.354.353.354.354zm5.657-7.071.354-.354-.354-.353-.353.353zm-6.364 6.364-.353.354.353.353.354-.353zm-6.364-6.364.354-.354-.354-.353-.353.353zm-.707.707-.353-.353-.354.353.354.354zm6.364 6.364.354.354.353-.354-.353-.353zm-7.071 7.071-.354-.353-.353.353.353.354zm.707.707-.353.354.353.353.354-.353zm7.071-7.071.354-.353-.354-.354-.353.354zm7.071 7.071-.353.354.353.353.354-.353zm.707-.707.354.354.353-.354-.353-.353zm-1.06-13.788-6.364 6.364.707.707 6.364-6.364zm-.707 0 .707.707.707-.707-.707-.708zm-5.657 6.364 6.364-6.364-.707-.708-6.364 6.364zm-7.071-6.364 6.364 6.364.707-.708-6.364-6.364zm0 .707.707-.707-.707-.708-.707.708zm6.364 5.657-6.364-6.364-.707.707 6.363 6.364zm-7.071 7.778 7.071-7.071-.708-.707-7.071 7.071zm.707 0-.707-.707-.708.707.708.707zm6.364-7.071-7.071 7.071.707.707 7.071-7.071zm7.778 7.071-7.071-7.071-.707.707 7.071 7.071zm0-.707-.707.707.707.707.707-.707zm-7.071-6.364 7.071 7.071.707-.707-7.071-7.071z" fill="#dce775"/><path d="m529 356.037h4.5l6.554 13.259 6.946-12.296.5-7" stroke="#76e4f7" stroke-linecap="round"/><path d="m463 52c2.247 3.8033 1.666 10.7668 1.666 10.7668l13.334-15.7668" stroke="#7986cb" stroke-linecap="round"/><path d="m320.413 274.5 9.587-19.373 9.587 19.373z" stroke="#76e4f7"/><path d="m71.6863 69.4801-2.0163-4.023 8.9171-11.8006-14.1049-.7-6.482 2.6895" stroke="#68d391" stroke-linecap="round"/><circle cx="314.115" cy="362.115" r="9.5" stroke="#dce775" transform="matrix(-.24095649 .97053592 -.97053592 -.24095649 741.248662 144.509069)"/><path d="m237.832 56.0343.263-.4254-.426-.2627-.262.4254zm-9.456 15.3163-.425-.2627-.263.4255.426.2626zm15.412-11.639.426.2626.262-.4254-.425-.2627zm-5.253 8.509-.425-.2627-.263.4255.425.2626zm.851.5253.263-.4254zm8.509 5.2532.426.2627.262-.4255-.425-.2626zm-4.203 6.8073-.262.4254.425.2627.263-.4255zm5.054-6.2819.263-.4255-.426-.2627-.262.4255zm-4.728 7.6581-.263.4254.426.2627.263-.4255zm-.851-.5253.263-.4255zm-16.167-9.9812-.425-.2626-.263.4254.425.2627zm10.506-17.018.263-.4255-.425-.2626-.263.4254zm.851.5253.263-.4255zm5.957 3.6773-.263.4254.425.2627.263-.4255zm4.728-7.6582.262-.4254-.425-.2627-.263.4255zm.85.5253-.262.4255zm15.317 9.4558.262-.4254zm.851.5254.425.2626.263-.4254-.426-.2627zm-10.507 17.018-.262.4255.425.2626.263-.4254zm-.851-.5253.263-.4254zm-5.335-25.623.263-.4254-.426-.2627-.262.4255zm-4.202 6.8073-.426-.2627-.263.4255.426.2626zm19.518 2.6485.426.2627.263-.4254-.426-.2627zm-9.455 15.3163-.263.4255.425.2626.263-.4254zm-5.957-3.6772-.425-.2627-.263.4254.426.2627zm5.254-8.5091.425.2627.263-.4255-.426-.2626zm-.851-.5253.262-.4255zm-.526.8509.426.2627.262-.4255-.425-.2627zm-8.509-5.2532.263-.4255-.426-.2626-.262.4254zm3.781 12.9113-.262.4255.425.2626.263-.4254zm-8.509-5.2532-.425-.2627-.263.4255.426.2627zm-2.504-12.1234-9.456 15.3163.851.5253 9.455-15.3162zm6.644 3.5145-5.956-3.6772-.526.8509 5.957 3.6772zm-.688.1628-4.728 7.6581.851.5253 4.728-7.6581zm-4.728 7.6581-.525.8509.851.5254.525-.851zm-.363 1.539.851.5254.526-.8509-.851-.5254zm.851.5254 8.509 5.2532.526-.8509-8.509-5.2532zm4.995 11.8976 4.203-6.8072-.851-.5253-4.203 6.8072zm-16.004-9.293 15.316 9.4558.525-.8509-15.316-9.4558zm16.855 9.8183 4.202-6.8072-.85-.5253-4.203 6.8072zm-.525.8509.525-.8509-.851-.5253-.525.8509zm-1.539-.3625.85.5253.526-.8509-.851-.5253zm-15.317-9.4558 15.317 9.4558.525-.8509-15.316-9.4558zm-.851-.5253.851.5253.526-.8509-.851-.5253zm.363-1.539-.525.8509.85.5253.526-.8509zm9.456-15.3163-9.456 15.3163.851.5253 9.456-15.3163zm.525-.8509-.525.8509.851.5253.525-.8509zm1.539.3625-.851-.5253-.525.8509.851.5254zm5.956 3.6773-5.956-3.6773-.525.851 5.956 3.6772zm3.515-6.6444-4.203 6.8072.851.5253 4.203-6.8072zm.525-.8509-.525.8509.851.5253.525-.8509zm1.539.3625-.851-.5253-.525.8509.851.5253zm15.316 9.4558-15.316-9.4558-.525.8509 15.316 9.4558zm.851.5253-.851-.5253-.525.8509.851.5253zm-.362 1.539.525-.8509-.851-.5253-.525.8509zm-9.456 15.3163 9.456-15.3163-.851-.5253-9.456 15.3163zm-.525.8509.525-.8509-.851-.5253-.525.8509zm-1.539-.3625.851.5253.525-.8509-.851-.5253zm-5.957-3.6773 5.957 3.6773.525-.8509-5.956-3.6773zm.459-22.6338-4.203 6.8072.851.5253 4.203-6.8072zm16.004 9.293-15.316-9.4558-.526.8509 15.317 9.4558zm-9.293 16.0044 9.456-15.3163-.851-.5253-9.456 15.3162zm-6.644-3.5145 5.956 3.6773.525-.8509-5.956-3.6773zm.688-.1628 4.728-7.6581-.851-.5253-4.728 7.6581zm4.728-7.6581.525-.8509-.851-.5253-.525.8509zm.362-1.539-.851-.5254-.525.8509.851.5254zm-.851-.5254-8.509-5.2532-.525.8509 8.509 5.2532zm-.525.8509-8.509-5.2532-.525.8509 8.509 5.2532zm-4.565 8.3463 4.728-7.6581-.851-.5254-4.728 7.6582zm-9.197-5.0904 8.509 5.2532.525-.8509-8.509-5.2532zm4.565-8.3463-4.728 7.6581.851.5254 4.728-7.6582z" fill="#ff7043"/><path d="m385.899 454.659.986-.167-.167-.986-.986.168zm-17.746 3.013-.167-.986-.986.167.167.986zm18.918 3.889.167.986.986-.168-.167-.986zm-9.859 1.673-.167-.986-.986.168.167.986zm1.841 10.845.167.986.986-.167-.167-.986zm-7.887 1.339-.986.167.167.986.986-.167zm8.054-.353.986-.167-.167-.986-.986.167zm-8.873 1.506-.986.168.168.985.985-.167zm-3.347-19.718-.167-.986-.986.168.167.986zm19.718-3.347.986-.167-.168-.986-.985.167zm1.339 7.887-.986.168.167.986.986-.168zm8.873-1.506.986-.167-.168-.986-.986.167zm3.18 18.732-.986.168zm.167.986.167.986.986-.167-.167-.986zm-.986.167.167.986zm-17.746 3.013.167.986zm-.986.167-.986.168.167.985.986-.167zm-.167-.986-.986.168zm15.719-20.926.986-.167-.167-.986-.986.167zm-7.887 1.339-.167-.986-.986.168.167.986zm10.9 16.408.167.985.986-.167-.167-.986zm-17.746 3.012-.986.167.167.986.986-.167zm-1.172-6.901-.167-.986-.986.167.167.986zm8.873-1.507-.167-.985zm.986-.167.167.986.986-.167-.167-.986zm-1.153-.818.167.985.986-.167-.167-.986zm-1.674-9.859.986-.168-.167-.986-.986.168zm-7.199 11.365-.986.167.167.986.986-.167zm-1.674-9.859-.167-.986-.986.167.167.986zm7.367-10.379-17.746 3.012.335 1.972 17.746-3.013zm2.325 7.719-1.172-6.901-1.972.335 1.172 6.901zm-1.153-.818-8.874 1.506.335 1.972 8.873-1.506zm-8.874 1.506-.985.167.334 1.972.986-.167zm-1.804 1.321.167.985 1.972-.334-.167-.986zm.167.985 1.674 9.859 1.972-.334-1.674-9.859zm-5.06 12.017 7.887-1.339-.335-1.972-7.887 1.339zm-4.166-18.565 3.013 17.746 1.972-.334-3.013-17.747zm4.333 19.551 7.888-1.339-.335-1.972-7.887 1.339zm-.986.167.986-.167-.334-1.972-.986.167zm-1.32-1.804.167.986 1.972-.335-.167-.986zm-3.013-17.746 3.013 17.746 1.972-.335-3.013-17.746zm-.167-.986.167.986 1.972-.335-.167-.986zm1.805-1.321-.986.167.334 1.972.986-.167zm17.746-3.012-17.746 3.012.334 1.972 17.746-3.013zm.986-.168-.986.168.334 1.971.986-.167zm1.32 1.805-.167-.986-1.972.335.167.985zm1.172 6.901-1.172-6.901-1.972.334 1.172 6.902zm6.734-2.157-7.888 1.338.335 1.972 7.887-1.339zm.985-.168-.985.168.334 1.971.986-.167zm1.321 1.805-.167-.986-1.972.334.167.986zm3.013 17.746-3.013-17.746-1.972.334 3.013 17.747zm.167.986-.167-.986-1.972.335.167.985zm-1.805 1.32.986-.167-.334-1.972-.986.168zm-17.746 3.013 17.746-3.013-.334-1.971-17.746 3.012zm-.986.167.986-.167-.334-1.972-.986.167zm-1.32-1.804.167.986 1.972-.335-.167-.986zm-1.172-6.902 1.172 6.902 1.972-.335-1.172-6.901zm17.71-15.178-7.887 1.339.334 1.972 7.888-1.339zm4.166 18.565-3.013-17.746-1.972.335 3.013 17.746zm-18.565 4.166 17.746-3.013-.335-1.971-17.746 3.012zm-2.325-7.72 1.172 6.901 1.971-.334-1.171-6.902zm1.153.819 8.874-1.507-.335-1.971-8.873 1.506zm8.874-1.507.985-.167-.334-1.972-.986.168zm1.804-1.32-.167-.986-1.972.335.167.985zm-.167-.986-1.674-9.859-1.972.335 1.674 9.859zm-.986.167-1.674-9.859-1.972.335 1.674 9.859zm-9.692 2.66 8.873-1.507-.335-1.971-8.873 1.506zm-2.827-10.678 1.674 9.859 1.972-.335-1.674-9.859zm9.692-2.659-8.873 1.506.335 1.972 8.873-1.507z" fill="#6b8af0" mask="url(#b)"/><path d="m296.898 511.599-8.721 19.778-10.434-18.929z" stroke="#9f7aea"/><path d="m478.837 393.226 18.196 11.667-20.313 7.39z" stroke="#ff7043"/><path d="m197.749 479.192c2.792 3.423 3.261 10.395 3.261 10.395l10.821-17.587" stroke="#b794f4" stroke-linecap="round"/><path d="m146.354 484.452h19v19h-19z" stroke="#dce775" transform="matrix(-.77108032 -.63673789 .63673789 -.77108032 -49.264255 951.19254)"/><path d="m398.581 17.6549 8.746 19.7666-21.02-5.0361z" stroke="#ff7043"/><path d="m27.1372 508.251 8.8952-19.7 10.2667 19.022z" stroke="#81e6d9"/><circle cx="85.9374" cy="155.937" r="9.5" stroke="#68d391" transform="matrix(-.57700265 -.81674227 .81674227 -.57700265 8.163168 316.10177)"/><path d="m578.857 78.9842c1.937 3.97.804 10.8652.804 10.8652l14.546-14.6562" stroke="#dce775" stroke-linecap="round"/><path d="m31.7862 228.728 8.3949 19.919-20.9278-5.408z" stroke="#ed64a6"/><path d="m314.458 155.146-4.298-1.333-2.33-14.606-10.278 9.685-2.552 6.537" stroke="#76e4f7" stroke-linecap="round"/><path d="m353.852 157.588 4.455-.636 8.36 12.202 5.141-13.153-.493-7.001" stroke="#dce775" stroke-linecap="round"/><path d="m599.758 192.815.408.29.289-.408-.407-.289zm-5.209 7.34-.408-.29-.289.408.408.289zm4.394-7.918.289-.408-.408-.29-.289.408zm-5.209 7.339-.29.408.408.289.289-.408zm-7.34-5.209.29-.408-.408-.289-.289.407zm-.579.815-.407-.289-.29.408.408.289zm7.34 5.209.407.29.29-.408-.408-.289zm-5.788 8.155-.408-.289-.289.407.407.29zm.815.579-.289.408.408.289.289-.408zm5.788-8.155.29-.408-.408-.289-.29.408zm8.155 5.788-.289.408.407.289.29-.407zm.579-.815.407.289.29-.408-.408-.289zm-3.354-13.417-5.209 7.339.816.579 5.209-7.339zm-.697.118.816.579.579-.815-.816-.579zm-4.512 7.221 5.209-7.339-.815-.579-5.209 7.34zm-8.036-5.091 7.339 5.21.579-.816-7.339-5.209zm.118.698.579-.816-.815-.579-.579.816zm7.221 4.512-7.339-5.21-.579.816 7.339 5.209zm-5.669 8.851 5.787-8.154-.815-.579-5.788 8.155zm.697-.118-.816-.579-.579.816.816.579zm5.09-8.036-5.787 8.154.815.579 5.788-8.154zm8.852 5.669-8.154-5.788-.579.816 8.155 5.788zm-.118-.697-.579.816.816.579.578-.816zm-8.036-5.091 8.154 5.788.579-.815-8.155-5.788z" fill="#76e4f7"/><path d="m23.9658 377.129.1258.484.4839-.126-.1258-.484zm-8.7103 2.265-.1259-.484-.4839.126.1259.484zm8.4586-3.233.4839-.126-.1259-.484-.4839.126zm-8.7103 2.265-.4839.126.1258.484.4839-.126zm-2.2653-8.71.4839-.126-.1258-.484-.4839.126zm-.9678.252-.1258-.484-.4839.126.1258.484zm2.2653 8.71.1258.484.4839-.126-.1258-.484zm-9.67805 2.517-.12585-.484-.4839.126.12585.484zm.2517.968-.4839.126.12584.484.48391-.126zm9.67805-2.517.4839-.126-.1259-.484-.4839.126zm2.517 9.678-.4839.126.1258.484.4839-.126zm.9678-.252.1258.484.4839-.126-.1258-.484zm6.0674-12.427-8.7103 2.265.2517.968 8.7103-2.265zm-.6097-.358.2517.968.9678-.252-.2517-.968zm-8.1006 2.623 8.7103-2.265-.2517-.968-8.7103 2.265zm-2.875-9.068 2.2653 8.71.9678-.251-2.2653-8.711zm-.358.61.9678-.252-.2517-.968-.9678.252zm2.6233 8.1-2.2653-8.71-.9678.252 2.2653 8.71zm-10.0361 3.127 9.678-2.517-.2517-.968-9.678 2.517zm.60975.358-.2517-.968-.9678.252.2517.968zm9.06825-2.875-9.678 2.517.2517.968 9.678-2.517zm3.1268 10.036-2.517-9.678-.9678.252 2.517 9.678zm.358-.61-.9678.252.2517.968.9678-.252zm-2.875-9.068 2.517 9.678.9678-.252-2.517-9.678z" fill="#ff7043"/></g></svg>