<svg fill="none" height="206" viewBox="0 0 450 206" width="450" xmlns="http://www.w3.org/2000/svg"><path d="m95 35.0001h187.209c24.185 0 43.791 19.606 43.791 43.791v93.0569h-187.209c-24.185 0-43.791-19.606-43.791-43.791z" fill="#fff"/><path d="m213.182 108.171c2.42 0 4.108-1.395 4.34-3.596h-2.009c-.219 1.169-1.101 1.887-2.325 1.887-1.579 0-2.57-1.299-2.57-3.404 0-2.078 1.005-3.3841 2.564-3.3841 1.203 0 2.132.7931 2.324 2.0031h2.01c-.158-2.2082-1.962-3.7121-4.334-3.7121-2.858 0-4.669 1.9209-4.669 5.1001 0 3.185 1.798 5.106 4.669 5.106zm5.496-.171h1.996v-4.184c0-.963.554-1.626 1.497-1.626.909 0 1.374.574 1.374 1.517v4.293h1.996v-4.717c0-1.695-.93-2.748-2.557-2.748-1.114 0-1.914.52-2.303 1.443h-.041v-3.8422h-1.962zm10.971-1.326c-.676 0-1.128-.342-1.128-.889 0-.519.424-.854 1.169-.909l1.545-.096v.534c0 .793-.717 1.36-1.586 1.36zm-.656 1.442c.916 0 1.825-.458 2.236-1.237h.041v1.121h1.927v-5.038c0-1.477-1.223-2.447-3.103-2.447-1.942 0-3.152.977-3.227 2.399h1.825c.096-.54.568-.909 1.313-.909.752 0 1.23.396 1.23 1.08v.485l-1.845.11c-1.826.109-2.851.882-2.851 2.215 0 1.319 1.06 2.221 2.454 2.221zm7.568-4.505h-.028v-5.4752h-1.996v9.8642h1.996v-2.42l.52-.56 2.098 2.98h2.297l-2.932-4.184 2.796-3.144h-2.263zm5.461 4.389h1.997v-4.095c0-1.032.574-1.633 1.558-1.633.287 0 .561.047.725.116v-1.757c-.137-.041-.335-.075-.568-.075-.861 0-1.483.506-1.743 1.435h-.041v-1.319h-1.928zm7.752-1.326c-.676 0-1.128-.342-1.128-.889 0-.519.424-.854 1.169-.909l1.545-.096v.534c0 .793-.717 1.36-1.586 1.36zm-.656 1.442c.916 0 1.825-.458 2.236-1.237h.041v1.121h1.927v-5.038c0-1.477-1.223-2.447-3.103-2.447-1.942 0-3.152.977-3.227 2.399h1.825c.096-.54.568-.909 1.313-.909.752 0 1.23.396 1.23 1.08v.485l-1.845.11c-1.826.109-2.851.882-2.851 2.215 0 1.319 1.06 2.221 2.454 2.221zm10.507-9.9802h-2.064v6.3782c0 2.174 1.606 3.657 4.135 3.657 2.523 0 4.129-1.483 4.129-3.657v-6.3782h-2.064v6.1732c0 1.264-.745 2.091-2.065 2.091-1.326 0-2.071-.827-2.071-2.091zm9.912 9.8642v-9.8642h-2.064v9.8642z" fill="#000"/><path d="m184 93.0201c-5.51 0-9.98 4.47-9.98 9.9799 0 5.51 4.47 9.98 9.98 9.98s9.98-4.47 9.98-9.98c0-5.5099-4.47-9.9799-9.98-9.9799zm-.52 17.9799v-6.26h-3.48l5-9.7399v6.2599h3.35z" fill="#0bc5ea"/><path d="m183.99 121c-5.52 0-9.99 4.48-9.99 10s4.47 10 9.99 10c5.53 0 10.01-4.48 10.01-10s-4.48-10-10.01-10zm4.24 16-4.23-2.55-4.23 2.55 1.12-4.81-3.73-3.23 4.92-.42 1.92-4.54 1.92 4.53 4.92.42-3.73 3.23z" fill="#0bc5ea"/><path d="m208.82 128.136v9.864h2.065v-3.11h1.845c2.079 0 3.521-1.354 3.521-3.377 0-2.031-1.395-3.377-3.418-3.377zm2.065 1.634h1.401c1.183 0 1.866.628 1.866 1.75 0 1.127-.69 1.756-1.873 1.756h-1.394zm6.419 8.23h1.996v-4.095c0-1.032.574-1.634 1.558-1.634.288 0 .561.048.725.117v-1.757c-.137-.041-.335-.075-.567-.075-.862 0-1.484.506-1.744 1.435h-.041v-1.319h-1.927zm8.141-6.009c.889 0 1.497.643 1.538 1.579h-3.11c.068-.916.697-1.579 1.572-1.579zm1.566 3.767c-.185.56-.745.923-1.477.923-1.018 0-1.681-.718-1.681-1.764v-.123h5.051v-.608c0-2.229-1.346-3.671-3.479-3.671-2.167 0-3.534 1.517-3.534 3.855 0 2.345 1.353 3.787 3.609 3.787 1.812 0 3.124-.964 3.343-2.399zm2.926 2.242h1.996v-4.423c0-.82.512-1.394 1.271-1.394.738 0 1.183.464 1.183 1.251v4.566h1.921v-4.45c0-.814.499-1.367 1.257-1.367.773 0 1.197.464 1.197 1.312v4.505h1.996v-5.004c0-1.476-.964-2.461-2.4-2.461-1.073 0-1.948.581-2.276 1.504h-.041c-.246-.957-.984-1.504-2.044-1.504-.998 0-1.784.581-2.092 1.463h-.041v-1.326h-1.927zm12.12 0h1.996v-7.328h-1.996zm.998-8.135c.601 0 1.066-.458 1.066-1.032 0-.581-.465-1.032-1.066-1.032-.602 0-1.067.451-1.067 1.032 0 .574.465 1.032 1.067 1.032zm9.098.807h-1.996v4.197c0 .971-.553 1.607-1.442 1.607-.882 0-1.367-.52-1.367-1.497v-4.307h-1.996v4.724c0 1.708 1.052 2.741 2.638 2.741 1.108 0 1.832-.533 2.195-1.456h.041v1.319h1.927zm1.299 7.328h1.996v-4.423c0-.82.513-1.394 1.272-1.394.738 0 1.182.464 1.182 1.251v4.566h1.921v-4.45c0-.814.499-1.367 1.258-1.367.773 0 1.196.464 1.196 1.312v4.505h1.996v-5.004c0-1.476-.963-2.461-2.399-2.461-1.073 0-1.948.581-2.276 1.504h-.041c-.246-.957-.985-1.504-2.044-1.504-.998 0-1.784.581-2.092 1.463h-.041v-1.326h-1.928z" fill="#000"/><path d="m178.662 78.2198c3.111 0 5.282-1.793 5.581-4.6231h-2.584c-.281 1.503-1.415 2.4258-2.988 2.4258-2.03 0-3.305-1.6699-3.305-4.3769 0-2.6719 1.292-4.3506 3.296-4.3506 1.547 0 2.742 1.0195 2.988 2.5752h2.584c-.202-2.8389-2.522-4.7725-5.572-4.7725-3.674 0-6.003 2.4697-6.003 6.5567 0 4.0957 2.312 6.5654 6.003 6.5654zm11.329-.0176c2.848 0 4.667-1.8193 4.667-4.9219 0-3.0586-1.846-4.9043-4.667-4.9043s-4.667 1.8545-4.667 4.9043c0 3.0938 1.82 4.9219 4.667 4.9219zm0-1.96c-1.265 0-2.065-1.0634-2.065-2.9531 0-1.872.817-2.9531 2.065-2.9531s2.057 1.0811 2.057 2.9531c0 1.8897-.8 2.9531-2.057 2.9531zm5.994 1.7579h2.567v-5.6866c0-1.0546.659-1.7929 1.635-1.7929.949 0 1.52.5976 1.52 1.6084v5.8711h2.47v-5.7217c0-1.0459.641-1.7578 1.617-1.7578.993 0 1.538.5976 1.538 1.6875v5.792h2.566v-6.4336c0-1.8985-1.239-3.1641-3.085-3.1641-1.379 0-2.504.7471-2.926 1.9336h-.053c-.316-1.2305-1.266-1.9336-2.628-1.9336-1.283 0-2.294.7471-2.689 1.8809h-.053v-1.7051h-2.479zm21.041-9.5713c-1.362 0-2.408.6855-2.918 1.7929h-.052v-1.6435h-2.532v12.498h2.567v-4.6582h.053c.501 1.0635 1.555 1.7315 2.926 1.7315 2.356 0 3.815-1.8281 3.815-4.8604 0-3.041-1.468-4.8603-3.859-4.8603zm-.861 7.6552c-1.257 0-2.083-1.0898-2.083-2.7949 0-1.6875.826-2.8037 2.083-2.8037 1.283 0 2.092 1.0986 2.092 2.8037 0 1.7139-.809 2.7949-2.092 2.7949zm10.371 2.1182c2.848 0 4.667-1.8193 4.667-4.9219 0-3.0586-1.846-4.9043-4.667-4.9043s-4.667 1.8545-4.667 4.9043c0 3.0938 1.819 4.9219 4.667 4.9219zm0-1.96c-1.265 0-2.065-1.0634-2.065-2.9531 0-1.872.817-2.9531 2.065-2.9531s2.057 1.0811 2.057 2.9531c0 1.8897-.8 2.9531-2.057 2.9531zm5.994 1.7579h2.567v-5.4053c0-1.2217.729-2.0654 1.881-2.0654 1.151 0 1.731.7031 1.731 1.9336v5.5371h2.566v-6.0733c0-2.206-1.177-3.5244-3.269-3.5244-1.45 0-2.444.6856-2.944 1.8545h-.053v-1.6787h-2.479zm14.599-7.7256c1.142 0 1.925.8261 1.977 2.0302h-3.999c.088-1.1777.897-2.0302 2.022-2.0302zm2.013 4.8427c-.238.7208-.958 1.1866-1.899 1.1866-1.309 0-2.162-.9229-2.162-2.2676v-.1582h6.495v-.7822c0-2.8653-1.731-4.7198-4.473-4.7198-2.787 0-4.544 1.9512-4.544 4.9571 0 3.0146 1.74 4.8691 4.64 4.8691 2.329 0 4.017-1.2392 4.298-3.085zm3.761 2.8829h2.567v-5.4053c0-1.2217.729-2.0654 1.881-2.0654 1.151 0 1.731.7031 1.731 1.9336v5.5371h2.566v-6.0733c0-2.206-1.177-3.5244-3.269-3.5244-1.45 0-2.443.6856-2.944 1.8545h-.053v-1.6787h-2.479zm11.057-11.5928v2.1709h-1.327v1.9336h1.327v4.9482c0 1.8369.861 2.5752 3.076 2.5752.519 0 .958-.0439 1.222-.1055v-1.8896c-.158.0264-.396.0439-.624.0439-.756 0-1.108-.3427-1.108-1.0634v-4.5088h1.741v-1.9336h-1.741v-2.1709zm5.555 4.9394c0 1.3887.914 2.3204 2.698 2.7247l1.74.3867c.844.2021 1.16.4658 1.16.9404 0 .6152-.589 1.002-1.564 1.002-1.02 0-1.644-.4571-1.767-1.2481h-2.505c.141 1.8369 1.688 3.0498 4.202 3.0498 2.487 0 4.192-1.2217 4.192-3.0762 0-1.4062-.765-2.1533-2.654-2.5752l-1.802-.3867c-.826-.1933-1.231-.5097-1.231-.9756 0-.6064.58-1.0107 1.468-1.0107.949 0 1.556.4658 1.609 1.2217h2.364c-.035-1.8281-1.573-3.0235-3.938-3.0235-2.417 0-3.972 1.1778-3.972 2.9707z" fill="#1a202c"/><path d="m151.949 83.085c6.046 0 10.948-4.901 10.948-10.948 0-6.046-4.902-10.948-10.948-10.948s-10.948 4.902-10.948 10.948c0 6.047 4.902 10.948 10.948 10.948z" fill="#00a3c4"/><path d="m157.111 67.849-1.424-1.123c-.044-.037-.099-.063-.161-.063s-.119.026-.163.065l-5.181 6.657s-2.036-1.96-2.093-2.017-.132-.153-.247-.153c-.114 0-.166.081-.225.14-.044.047-.771.81-1.128 1.188-.021.024-.034.038-.052.056-.031.044-.052.092-.052.147 0 .057.021.104.052.149l.072.067s3.613 3.47 3.673 3.53.132.135.239.135c.103 0 .189-.112.238-.161l6.462-8.301c.031-.044.052-.093.052-.15 0-.065-.026-.12-.062-.166z" fill="#fff"/><path d="m95 35.0001h187.209c24.185 0 43.791 19.606 43.791 43.791v93.0569h-187.209c-24.185 0-43.791-19.606-43.791-43.791z" stroke="#0bc5ea" stroke-width="2.19"/><path d="m124 16.494c0-9.109-7.385-16.494-16.494-16.494h-91.011c-9.11 0-16.495 7.385-16.495 16.494v20.012c0 9.109 7.385 16.494 16.495 16.494h107.505z" fill="#fff"/><path d="m122.351 16.494c0-8.19795-6.647-14.84495-14.845-14.84495h-91.011c-8.19901 0-14.84601 6.647-14.84601 14.84495v20.012c0 8.198 6.647 14.845 14.84601 14.845h105.856z" stroke="#e53e3e" stroke-width="3.299"/><path clip-rule="evenodd" d="m37.3636 18.8182h-12.7272c-.4822 0-.9447.1915-1.2857.5325s-.5325.8035-.5325 1.2857v12.7272c0 .4822.1915.9447.5325 1.2857s.8035.5325 1.2857.5325h12.7272c.4822 0 .9447-.1915 1.2857-.5325s.5325-.8035.5325-1.2857v-12.7272c0-.4822-.1915-.9447-.5325-1.2857s-.8035-.5325-1.2857-.5325zm-12.7272-1.8182c-.9645 0-1.8894.3831-2.5713 1.0651-.682.6819-1.0651 1.6068-1.0651 2.5713v12.7272c0 .9645.3831 1.8894 1.0651 2.5713.6819.682 1.6068 1.0651 2.5713 1.0651h12.7272c.9645 0 1.8894-.3831 2.5713-1.0651.682-.6819 1.0651-1.6068 1.0651-2.5713v-12.7272c0-.9645-.3831-1.8894-1.0651-2.5713-.6819-.682-1.6068-1.0651-2.5713-1.0651z" fill="#c53030" fill-rule="evenodd"/><path d="m34.6364 26.9998-5.4546 3.9364v-7.8727z" fill="#e53e3e"/><path d="m56.1885 32c2.1054 0 3.4111-1.0869 3.4111-2.8232 0-1.3057-.9844-2.2832-2.3242-2.3858v-.0547c1.0459-.1572 1.8525-1.0595 1.8525-2.1396 0-1.5108-1.1621-2.461-3.0146-2.461h-4.293v9.8643zm-2.3037-8.3262h1.6953c.9638 0 1.5176.4512 1.5176 1.2442 0 .834-.6289 1.3193-1.7295 1.3193h-1.4834zm0 6.7881v-2.8642h1.7295c1.2168 0 1.8798.4921 1.8798 1.415 0 .9434-.6425 1.4492-1.832 1.4492zm13.4873-5.79h-1.9961v4.1972c0 .9707-.5537 1.6065-1.4424 1.6065-.8818 0-1.3672-.5195-1.3672-1.4971v-4.3066h-1.9961v4.7236c0 1.709 1.0527 2.7412 2.6387 2.7412 1.1074 0 1.832-.5332 2.1943-1.456h.041v1.3193h1.9278zm1.832-1.6885v1.6885h-1.0322v1.5039h1.0322v3.8486c0 1.4287.6699 2.0029 2.3926 2.0029.4033 0 .7451-.0341.9502-.082v-1.4697c-.1231.0205-.3076.0342-.4854.0342-.5879 0-.8613-.2666-.8613-.8272v-3.5068h1.3535v-1.5039h-1.3535v-1.6885zm4.9766 0v1.6885h-1.0323v1.5039h1.0323v3.8486c0 1.4287.6699 2.0029 2.3925 2.0029.4034 0 .7452-.0341.9502-.082v-1.4697c-.123.0205-.3076.0342-.4853.0342-.5879 0-.8613-.2666-.8613-.8272v-3.5068h1.3535v-1.5039h-1.3535v-1.6885zm7.6972 9.1738c2.2149 0 3.6299-1.415 3.6299-3.8281 0-2.3789-1.4355-3.8145-3.6299-3.8145-2.1943 0-3.6299 1.4424-3.6299 3.8145 0 2.4063 1.4151 3.8281 3.6299 3.8281zm0-1.5244c-.9843 0-1.6064-.8271-1.6064-2.2969 0-1.456.6357-2.2968 1.6064-2.2968s1.5996.8408 1.5996 2.2968c0 1.4698-.622 2.2969-1.5996 2.2969zm4.6621 1.3672h1.9961v-4.2041c0-.9502.5674-1.6064 1.4629-1.6064s1.3467.5468 1.3467 1.5039v4.3066h1.9961v-4.7236c0-1.7159-.916-2.7412-2.543-2.7412-1.1279 0-1.9004.5332-2.29 1.4423h-.041v-1.3056h-1.9278zm7.9434-5.1748c0 1.0801.7109 1.8047 2.0986 2.1191l1.3535.3008c.6563.1572.9024.3623.9024.7315 0 .4785-.458.7793-1.2168.7793-.793 0-1.2783-.3555-1.374-.9707h-1.9483c.1094 1.4287 1.3125 2.372 3.2676 2.372 1.9346 0 3.2606-.9502 3.2606-2.3926 0-1.0937-.595-1.6748-2.0643-2.0029l-1.4014-.3008c-.6425-.1504-.957-.3964-.957-.7588 0-.4716.4512-.7861 1.1416-.7861.7383 0 1.21.3623 1.251.9502h1.8391c-.028-1.4219-1.2239-2.3516-3.0628-2.3516-1.8798 0-3.0898.9161-3.0898 2.3106z" fill="#000"/><path d="m289 40.494c0-9.109 7.385-16.494 16.494-16.494h128.012c9.109 0 16.494 7.385 16.494 16.494v16.012c0 9.109-7.385 16.494-16.494 16.494h-144.506z" fill="#fff"/><path d="m290.649 40.494c0-8.198 6.645-14.845 14.844-14.845h128.011c8.199 0 14.845 6.647 14.845 14.845v16.012c0 8.198-6.646 14.845-14.845 14.845h-142.855z" stroke="#ecc94b" stroke-width="3.299"/><path d="m315.222 56v-1.7778h2.667v-12.4444h-2.667v-1.7778h7.111v1.7778h-2.666v12.4444h2.666v1.7778zm8.934-12.4 4.4 4.4-4.4 4.4-1.257-1.2569 3.143-3.1431-3.143-3.1431zm-10.756 0 1.257 1.2569-3.143 3.1431 3.143 3.1431-1.257 1.2569-4.4-4.4z" fill="#b7791f"/><path d="m341.44 53v-3.8828h4.013v-1.6338h-4.013v-2.6455h4.396v-1.7022h-6.46v9.8643zm8.607.1572c2.215 0 3.63-1.415 3.63-3.8281 0-2.3789-1.436-3.8145-3.63-3.8145-2.195 0-3.63 1.4424-3.63 3.8145 0 2.4063 1.415 3.8281 3.63 3.8281zm0-1.5244c-.985 0-1.607-.8271-1.607-2.2969 0-1.456.636-2.2968 1.607-2.2968.97 0 1.599.8408 1.599 2.2968 0 1.4698-.622 2.2969-1.599 2.2969zm4.662 1.3672h1.996v-4.0947c0-1.0323.574-1.6338 1.559-1.6338.287 0 .56.0478.724.1162v-1.7568c-.137-.0411-.335-.0752-.567-.0752-.862 0-1.484.5058-1.743 1.4355h-.041v-1.3193h-1.928zm5.099 0h1.997v-4.4229c0-.8203.512-1.3945 1.271-1.3945.738 0 1.183.4649 1.183 1.251v4.5664h1.921v-4.4502c0-.8135.499-1.3672 1.257-1.3672.773 0 1.197.4649 1.197 1.3125v4.5049h1.996v-5.0039c0-1.4766-.964-2.4609-2.4-2.4609-1.073 0-1.948.581-2.276 1.5039h-.041c-.246-.9571-.984-1.5039-2.044-1.5039-.998 0-1.784.581-2.092 1.4628h-.041v-1.3261h-1.928zm19.394.1709c2.42 0 4.108-1.3945 4.341-3.5957h-2.01c-.219 1.1689-1.101 1.8867-2.324 1.8867-1.579 0-2.57-1.2988-2.57-3.4043 0-2.0781 1.004-3.3838 2.563-3.3838 1.203 0 2.133.793 2.324 2.003h2.01c-.157-2.208-1.962-3.712-4.334-3.712-2.857 0-4.669 1.9209-4.669 5.0997 0 3.1855 1.798 5.1064 4.669 5.1064zm8.812-.0137c2.214 0 3.629-1.415 3.629-3.8281 0-2.3789-1.435-3.8145-3.629-3.8145-2.195 0-3.63 1.4424-3.63 3.8145 0 2.4063 1.415 3.8281 3.63 3.8281zm0-1.5244c-.985 0-1.607-.8271-1.607-2.2969 0-1.456.636-2.2968 1.607-2.2968.97 0 1.599.8408 1.599 2.2968 0 1.4698-.622 2.2969-1.599 2.2969zm4.662 1.3672h1.996v-4.2041c0-.9502.567-1.6064 1.463-1.6064.895 0 1.346.5468 1.346 1.5039v4.3066h1.996v-4.7236c0-1.7159-.916-2.7412-2.543-2.7412-1.127 0-1.9.5332-2.29 1.4423h-.041v-1.3056h-1.927zm8.599-9.0166v1.6885h-1.032v1.5039h1.032v3.8486c0 1.4287.67 2.0029 2.393 2.0029.403 0 .745-.0341.95-.082v-1.4697c-.123.0205-.308.0342-.485.0342-.588 0-.862-.2666-.862-.8272v-3.5068h1.354v-1.5039h-1.354v-1.6885zm4.444 9.0166h1.996v-4.0947c0-1.0323.574-1.6338 1.558-1.6338.287 0 .561.0478.725.1162v-1.7568c-.137-.0411-.335-.0752-.567-.0752-.862 0-1.484.5058-1.744 1.4355h-.041v-1.3193h-1.927zm8.216.1572c2.215 0 3.63-1.415 3.63-3.8281 0-2.3789-1.435-3.8145-3.63-3.8145-2.194 0-3.629 1.4424-3.629 3.8145 0 2.4063 1.415 3.8281 3.629 3.8281zm0-1.5244c-.984 0-1.606-.8271-1.606-2.2969 0-1.456.636-2.2968 1.606-2.2968.971 0 1.6.8408 1.6 2.2968 0 1.4698-.622 2.2969-1.6 2.2969zm4.71 1.3672h1.996v-9.8643h-1.996zm3.22-5.1748c0 1.0801.711 1.8047 2.099 2.1191l1.353.3008c.657.1572.903.3623.903.7315 0 .4785-.458.7793-1.217.7793-.793 0-1.279-.3555-1.374-.9707h-1.948c.109 1.4287 1.312 2.372 3.267 2.372 1.935 0 3.261-.9502 3.261-2.3926 0-1.0937-.595-1.6748-2.065-2.0029l-1.401-.3008c-.643-.1504-.957-.3964-.957-.7588 0-.4716.451-.7861 1.142-.7861.738 0 1.21.3623 1.251.9502h1.838c-.027-1.4219-1.223-2.3516-3.062-2.3516-1.88 0-3.09.9161-3.09 2.3106z" fill="#000"/><path d="m262 189.506c0 9.109 7.385 16.494 16.494 16.494h85.012c9.109 0 16.494-7.385 16.494-16.494v-16.012c0-9.109-7.385-16.494-16.494-16.494h-101.506z" fill="#fff"/><path d="m263.649 189.505c0 8.198 6.645 14.845 14.844 14.845h85.011c8.199 0 14.845-6.647 14.845-14.845v-16.011c0-8.198-6.646-14.844-14.845-14.844h-99.855z" stroke="#48bb78" stroke-width="3.299"/><path d="m297 188.857c0 .632-.512 1.143-1.143 1.143h-3.428c-.631 0-1.143-.511-1.143-1.143s.512-1.143 1.143-1.143h.571v-5.143h-8v5.143h.571c.632 0 1.143.511 1.143 1.143s-.511 1.143-1.143 1.143h-3.428c-.631 0-1.143-.511-1.143-1.143s.512-1.143 1.143-1.143h.571v-11.428h-.571c-.631 0-1.143-.511-1.143-1.143s.512-1.143 1.143-1.143h3.428c.632 0 1.143.511 1.143 1.143s-.511 1.143-1.143 1.143h-.571v4h8v-4h-.571c-.631 0-1.143-.511-1.143-1.143s.512-1.143 1.143-1.143h3.428c.631 0 1.143.511 1.143 1.143s-.512 1.143-1.143 1.143h-.571v11.428h.571c.632 0 1.143.511 1.143 1.143z" fill="#276749"/><path d="m316.393 187v-9.864h-2.065v4.006h-4.443v-4.006h-2.065v9.864h2.065v-4.156h4.443v4.156zm4.757-6.009c.889 0 1.497.643 1.538 1.579h-3.11c.068-.916.697-1.579 1.572-1.579zm1.566 3.767c-.185.56-.745.923-1.477.923-1.018 0-1.681-.718-1.681-1.764v-.123h5.051v-.608c0-2.229-1.346-3.671-3.479-3.671-2.167 0-3.534 1.517-3.534 3.855 0 2.345 1.353 3.787 3.609 3.787 1.812 0 3.124-.964 3.343-2.399zm5.756.916c-.677 0-1.128-.342-1.128-.889 0-.519.424-.854 1.169-.909l1.545-.096v.534c0 .793-.718 1.36-1.586 1.36zm-.657 1.442c.916 0 1.826-.458 2.236-1.237h.041v1.121h1.928v-5.038c0-1.477-1.224-2.447-3.104-2.447-1.941 0-3.151.977-3.227 2.399h1.826c.095-.54.567-.909 1.312-.909.752 0 1.231.396 1.231 1.08v.485l-1.846.11c-1.825.109-2.851.882-2.851 2.215 0 1.319 1.06 2.221 2.454 2.221zm8.217 0c1.08 0 1.928-.567 2.283-1.374h.035v1.258h1.968v-9.864h-1.996v3.794h-.041c-.355-.814-1.176-1.374-2.235-1.374-1.839 0-3.001 1.442-3.001 3.766 0 2.345 1.155 3.794 2.987 3.794zm.677-5.961c.991 0 1.627.848 1.627 2.181 0 1.34-.636 2.174-1.627 2.174-1.005 0-1.62-.827-1.62-2.174 0-1.34.615-2.181 1.62-2.181zm4.977 5.845h1.996v-7.328h-1.996zm.998-8.135c.601 0 1.066-.458 1.066-1.032 0-.581-.465-1.032-1.066-1.032-.602 0-1.067.451-1.067 1.032 0 .574.465 1.032 1.067 1.032zm2.331 8.135h1.996v-4.204c0-.95.567-1.606 1.463-1.606.895 0 1.346.546 1.346 1.503v4.307h1.996v-4.724c0-1.715-.916-2.741-2.543-2.741-1.127 0-1.9.533-2.29 1.443h-.041v-1.306h-1.927zm11.45-1.559c-.991 0-1.607-.779-1.607-2.119 0-1.333.622-2.167 1.607-2.167.998 0 1.634.848 1.634 2.167 0 1.326-.636 2.119-1.634 2.119zm-.034 4.321c2.194 0 3.657-1.114 3.657-2.864v-7.226h-1.969v1.278h-.034c-.383-.841-1.21-1.394-2.263-1.394-1.859 0-3.008 1.428-3.008 3.753 0 2.29 1.183 3.671 2.974 3.671 1.06 0 1.921-.534 2.263-1.313h.041v1.285c0 .848-.574 1.422-1.607 1.422-.758 0-1.333-.349-1.49-.854h-1.955c.157 1.305 1.463 2.242 3.391 2.242z" fill="#000"/></svg>