<svg width="550" height="550" viewBox="0 0 550 550" fill="none" xmlns="http://www.w3.org/2000/svg">
<rect width="550" height="550" fill="none"/>
<g>
<path fill-rule="evenodd" clip-rule="evenodd" d="M299.405 33.3521C401.996 37.4563 469.558 128.894
499.654 227.057C527.924 319.258 514.508 424.117 436.67 481.051C358.167 538.469 253.188 521.157
173.19 465.841C85.8377 405.44 13.1672 310.734 42.9194 208.785C75.0008 98.8538 184.98 28.7744 299.405
33.3521Z" stroke="#ED64A6" stroke-width="0.751386"/>
 <animateTransform attributeName="transform"
  attributeType="XML"
  type="rotate"
  from="0 275 275"
  to="360 275 275"
  dur="20s"
  repeatCount="indefinite"/>
</g>
<g>
<path fill-rule="evenodd" clip-rule="evenodd" d="M288.13 20.17C393.435 21.5893 470.071 111.357
499.522 212.469C526.067 303.607 490.032 397.63 415.015 455.795C330.965 520.963 216.871 560.145
129.704 499.209C38.7196 435.604 23.5856 311.922 58.4426 206.524C92.668 103.035 179.139 18.7009
288.13 20.17Z" stroke="#D4E157" stroke-width="0.751386"/>
 <animateTransform attributeName="transform"
  attributeType="XML"
  type="rotate"
  from="360 275 275"
  to="0 275 275"
  dur="12s"
  repeatCount="indefinite"/>
</g>
<g>
<path fill-rule="evenodd" clip-rule="evenodd" d="M277.868 9.86699C384.336 10.4643 455.466 106.75
488.018 208.121C520.142 308.158 514.493 423.407 431.251 487.517C341.401 556.717 213.819 557.457
123.515 488.851C38.389 424.178 27.5429 307.475 60.3329 205.722C93.419 103.049 169.998 9.26184
277.868 9.86699Z" stroke="#9575CD" stroke-width="0.751386"/>
 <animateTransform attributeName="transform"
  attributeType="XML"
  type="rotate"
  from="0 275 275"
  to="360 275 275"
  dur="15s"
  repeatCount="indefinite"/>
</g>
<g>
<path fill-rule="evenodd" clip-rule="evenodd" d="M283.638 19.6053C386.803 20.3938 457.705 112.53
487.719 211.235C515.734 303.365 494.358 403.855 418.529 463.208C333.239 529.966 213.677 558.104
126.261 494.155C39.5155 430.697 35.8918 310.056 69.7236 208.04C102.793 108.324 178.584 18.8024
283.638 19.6053Z" stroke="#76E4F7" stroke-width="0.751386"/>
 <animateTransform attributeName="transform"
  attributeType="XML"
  type="rotate"
  from="360 275 275"
  to="0 275 275"
  dur="8s"
  repeatCount="indefinite"/>
</g>
<g>
<path fill-rule="evenodd" clip-rule="evenodd" d="M257.506 29.3868C372.082 26.4073 472.289 108.597
504.297 218.651C533.607 319.429 474.613 419.159 388.182 478.698C308.875 533.33 204.72 535.331
126.863 478.653C49.2309 422.138 20.4785 322.74 47.2911 230.535C77.2301 127.578 150.321 32.1741
257.506 29.3868Z" stroke="#FFC107" stroke-width="0.751386"/>
 <animateTransform attributeName="transform"
  attributeType="XML"
  type="rotate"
  from="0 275 275"
  to="360 275 275"
  dur="10s"
  repeatCount="indefinite"/>
</g>
</svg>
