<?xml version="1.0" encoding="UTF-8"?>
<svg xmlns="http://www.w3.org/2000/svg" xmlns:xlink="http://www.w3.org/1999/xlink" width="24px" height="24px" viewBox="0 0 24 24" version="1.1">
<g id="surface1">
<path style=" stroke:none;fill-rule:nonzero;fill:rgb(100%,100%,100%);fill-opacity:1;" d="M 9 0 C 4.03125 0 0 4.03125 0 9 C 0 12.976562 2.578125 16.351562 6.15625 17.539062 C 6.605469 17.625 6.75 17.34375 6.75 17.109375 L 6.75 15.433594 C 4.246094 15.976562 3.726562 14.371094 3.726562 14.371094 C 3.316406 13.328125 2.726562 13.054688 2.726562 13.054688 C 1.910156 12.496094 2.789062 12.507812 2.789062 12.507812 C 3.691406 12.570312 4.167969 13.433594 4.167969 13.433594 C 4.96875 14.808594 6.273438 14.410156 6.785156 14.183594 C 6.867188 13.601562 7.097656 13.203125 7.359375 12.980469 C 5.359375 12.75 3.257812 11.976562 3.257812 8.53125 C 3.257812 7.546875 3.609375 6.746094 4.183594 6.113281 C 4.089844 5.886719 3.78125 4.972656 4.273438 3.734375 C 4.273438 3.734375 5.027344 3.492188 6.746094 4.65625 C 7.464844 4.457031 8.234375 4.355469 9 4.351562 C 9.765625 4.355469 10.535156 4.457031 11.253906 4.65625 C 12.972656 3.492188 13.726562 3.734375 13.726562 3.734375 C 14.21875 4.972656 13.910156 5.886719 13.816406 6.113281 C 14.394531 6.746094 14.742188 7.546875 14.742188 8.53125 C 14.742188 11.988281 12.636719 12.75 10.632812 12.972656 C 10.957031 13.25 11.25 13.796875 11.25 14.636719 L 11.25 17.109375 C 11.25 17.347656 11.394531 17.628906 11.851562 17.539062 C 15.425781 16.347656 18 12.976562 18 9 C 18 4.03125 13.96875 0 9 0 Z M 9 0 "/>
</g>
</svg>
