<?xml version="1.0" encoding="UTF-8"?>
<svg xmlns="http://www.w3.org/2000/svg" xmlns:xlink="http://www.w3.org/1999/xlink" width="24px" height="24px" viewBox="0 0 24 24" version="1.1">
<g id="surface1">
<path style=" stroke:none;fill-rule:nonzero;fill:rgb(100%,100%,100%);fill-opacity:1;" d="M 24 12 C 24 18.628906 18.628906 24 12 24 C 5.371094 24 0 18.628906 0 12 C 0 5.371094 5.371094 0 12 0 C 18.628906 0 24 5.371094 24 12 Z M 9.804688 18.328125 C 15.125 18.328125 18.035156 13.921875 18.035156 10.097656 C 18.035156 9.972656 18.035156 9.847656 18.03125 9.726562 C 18.59375 9.316406 19.085938 8.808594 19.476562 8.226562 C 18.960938 8.453125 18.402344 8.609375 17.8125 8.683594 C 18.414062 8.320312 18.871094 7.757812 19.085938 7.078125 C 18.527344 7.410156 17.910156 7.648438 17.25 7.78125 C 16.722656 7.21875 15.972656 6.871094 15.136719 6.871094 C 13.542969 6.871094 12.246094 8.164062 12.246094 9.761719 C 12.246094 9.988281 12.269531 10.210938 12.324219 10.421875 C 9.917969 10.300781 7.789062 9.148438 6.359375 7.398438 C 6.113281 7.824219 5.96875 8.320312 5.96875 8.851562 C 5.96875 9.851562 6.480469 10.738281 7.261719 11.257812 C 6.785156 11.242188 6.34375 11.113281 5.953125 10.894531 C 5.953125 10.90625 5.953125 10.921875 5.953125 10.933594 C 5.953125 12.335938 6.949219 13.5 8.273438 13.769531 C 8.035156 13.835938 7.777344 13.871094 7.511719 13.871094 C 7.324219 13.871094 7.144531 13.855469 6.964844 13.816406 C 7.332031 14.96875 8.398438 15.804688 9.664062 15.828125 C 8.675781 16.601562 7.429688 17.0625 6.070312 17.0625 C 5.839844 17.0625 5.609375 17.050781 5.382812 17.023438 C 6.648438 17.851562 8.171875 18.328125 9.804688 18.328125 Z M 9.804688 18.328125 "/>
</g>
</svg>
