
        <svg xmlns="http://www.w3.org/2000/svg" xmlns:xlink="http://www.w3.org/1999/xlink" version="1.1" width="3182.370820668693" 
        height="1214.0872443945427" viewBox="0 0 3182.370820668693 1214.0872443945427">
			
			<g transform="scale(9.118541033434651) translate(10, 10)">
				<defs id="SvgjsDefs4757"><linearGradient id="SvgjsLinearGradient4764"><stop id="SvgjsStop4765" stop-color="#00ff8f" offset="0"></stop><stop id="SvgjsStop4766" stop-color="#00a1ff" offset="1"></stop></linearGradient></defs><g id="SvgjsG4758" featureKey="symbolGroupContainer" transform="matrix(1.0682842747973513,0,0,1.0682842747973513,0.026800088255465777,0.000009048635495402714)" fill="#4338ca"><path xmlns="http://www.w3.org/2000/svg" d="M101.3 44.9l-.5-2.1a48.1 48.1 0 0 0-1.3-6.1c-.3-1.1-.7-2.2-1.1-3.3l-.6-1.6-.7-1.6A50.9 50.9 0 0 0 78.7 8.5a50.5 50.5 0 0 0-20.6-8 55.7 55.7 0 0 0-7.4-.5A50.7 50.7 0 0 0 4.3 30.2l-.7 1.6-.6 1.6c-.4 1.1-.8 2.2-1.1 3.3a50.1 50.1 0 0 0-1.4 6.7 51.4 51.4 0 0 0-.2 13.1 53 53 0 0 0 1.4 7.3l.3 1.5a50.6 50.6 0 0 0 5 13.9 52.4 52.4 0 0 0 4 6.3 55.9 55.9 0 0 0 4.9 5.6A50.7 50.7 0 0 0 70 102.5l1.6-.7 1.6-.7 3.1-1.6a50.1 50.1 0 0 0 5.7-3.6 51.5 51.5 0 0 0 9.4-9.1 50.6 50.6 0 0 0 6.5-10.6 51.7 51.7 0 0 0 3.5-11.1 51.1 51.1 0 0 0-.1-20.2zm-.8-1.5a52.2 52.2 0 0 1 .2 13.1 50.3 50.3 0 0 1-2.9 12 51.5 51.5 0 0 1-5.3 10.3l-.3.4a45.4 45.4 0 0 0 2.8-5.1c.5-1 .8-2 1.2-3s.7-2 1-3a46.3 46.3 0 0 0 1.2-6.1c.1-1 .3-2 .3-3.1s.1-1 .1-1.5v-1.5c0-1 0-2-.1-3s-.1-2-.3-3a46.5 46.5 0 0 0-2.7-11.1 47.5 47.5 0 0 0-4.9-9.5 47 47 0 0 0-10.2-10.9 46.8 46.8 0 0 0-53.8-7.1l4.1-2.1a51.6 51.6 0 0 1 11-3.6 50.9 50.9 0 0 1 20.1.2 50 50 0 0 1 14.6 5.5 48.2 48.2 0 0 1 8.3 5.7l2 1.8.7.6.6.7 1.8 2a48.1 48.1 0 0 1 5.8 8.2 50.6 50.6 0 0 1 4.1 9.7c.3 1.1.5 2.3.6 3.4zM2.3 65.2A50.7 50.7 0 0 1 3 42.3l-.3 1.4A47 47 0 0 0 5 69.8c.4 1 .8 2 1.3 3s.9 1.9 1.5 2.8a46.3 46.3 0 0 0 3.4 5.3l1.9 2.4 1 1.2 1 1.1 2.2 2.1 2.3 1.9 2.5 1.8a45.4 45.4 0 0 0 4.1 3 47.3 47.3 0 0 0 6.9 3.7A49.3 49.3 0 0 1 23 93 51 51 0 0 1 8.7 78.8a51.6 51.6 0 0 1-5.3-10.3q-.5-1.4-1-2.9zm75.2 28.2a45.9 45.9 0 0 1-12 5.6 47.2 47.2 0 0 1-6.6 1.4 50.5 50.5 0 0 1-6.7.5A45.7 45.7 0 0 1 35 97.5l4.5 1.1a47.1 47.1 0 0 0 18.6-.2 47.4 47.4 0 0 0 13.4-5.1A44.2 44.2 0 0 0 79 88l1.8-1.6.6-.6.6-.6 1.7-1.8a44.3 44.3 0 0 0 5.4-7.5 47.8 47.8 0 0 0 5.2-13.4 47.2 47.2 0 0 0 .3-18.7 46 46 0 0 0-9.1-20.1c-.9-1.1-1.8-2.2-2.8-3.3a46.2 46.2 0 0 1 7.9 9.1 47.1 47.1 0 0 1 4.7 9.5 45.9 45.9 0 0 1 2.6 11c.1 1 .2 1.9.2 2.9s.1 2 0 3v1.5c0 .5-.1 1-.1 1.5s-.2 2-.3 3a45.5 45.5 0 0 1-1.3 6c-.3 1-.6 2-1 3s-.7 2-1.2 2.9a46 46 0 0 1-16.7 19.6zm-9.3-81.6l2.5 1.3a44.9 44.9 0 0 1 5.1 3.3l2.3 1.9 1.1 1 1.1 1 2.1 2.1 1.9 2.2a45.5 45.5 0 0 1 5.9 9.5 48.1 48.1 0 0 1 3.3 10 46.3 46.3 0 0 1 .1 18.3 45.4 45.4 0 0 1-10.1 20.9l-1.6 1.8-.6.6-.6.6-1.8 1.6a44.1 44.1 0 0 1-7.5 5.3 44.6 44.6 0 0 1-13.4 5 46.4 46.4 0 0 1-18.4 0 47 47 0 0 1-9.4-3l-3.2-2a46.2 46.2 0 0 1-16.5-19.5c-.5-.9-.8-1.9-1.2-2.9s-.7-2-.9-3a45 45 0 0 1-1.3-6c-.1-1-.3-2-.3-3s-.1-1-.1-1.5v-4.4c0-1 .1-1.9.2-2.9a45.6 45.6 0 0 1 2.5-10.9 48.1 48.1 0 0 1 4.7-9.4 46.3 46.3 0 0 1 12.9-13 45.4 45.4 0 0 1 22-7.6h6.5a44 44 0 0 1 9.1 1.6zm-3.6-1.3a44.2 44.2 0 0 0-9.1-1.6h-6.6a44.2 44.2 0 0 0-9.1 1.5 47.9 47.9 0 0 0-13.1 5.8 47.2 47.2 0 0 0-13.4 13 46.6 46.6 0 0 0 3.2 56.7l-.8-.8-1-1.1-1-1.1-1.9-2.4a45.4 45.4 0 0 1-3.3-5.2c-.5-.9-1-1.8-1.4-2.8s-.9-1.9-1.2-2.9a45.9 45.9 0 0 1 2.3-38.2 47.5 47.5 0 0 1 3.6-5.7 50.6 50.6 0 0 1 4.4-5.1A45.6 45.6 0 0 1 39.6 8.3 46.2 46.2 0 0 1 65 10.4l1.5.6zM.5 56.5a51.5 51.5 0 0 1 .2-13.1 50 50 0 0 1 1.4-6.6c.3-1.1.7-2.2 1.1-3.3l.6-1.6.7-1.6a50.4 50.4 0 0 1 92.2 0l.7 1.6.6 1.6c.4 1.1.8 2.2 1 3.3s.4 1.5.6 2.3a50.7 50.7 0 0 0-3.9-8.8 48.3 48.3 0 0 0-5.8-8.2l-1.8-2-.6-.7-.7-.6-2-1.8a48.3 48.3 0 0 0-8.2-5.8 50.1 50.1 0 0 0-14.5-5.6 51.2 51.2 0 0 0-20.2-.1A51.8 51.8 0 0 0 30.8 9 50.5 50.5 0 0 0 7.3 30.7c-.6 1-1.1 2-1.6 3.1L5 35.3l-.7 1.6a51 51 0 0 0-2.9 25 54 54 0 0 1-.9-5.4zm100.8 8.6a51.5 51.5 0 0 1-3.6 11 50.4 50.4 0 0 1-6.5 10.6 51.5 51.5 0 0 1-9.4 9.1 50 50 0 0 1-5.7 3.7l-3 1.5-1.6.7-1.6.7A50.5 50.5 0 0 1 2.7 67.2l.5 1.4a51.8 51.8 0 0 0 5.4 10.3 51.1 51.1 0 0 0 14.3 14.2 49.6 49.6 0 0 0 11.2 5.5l4.4 1.6a48.7 48.7 0 0 0 6.7 1.5 51.5 51.5 0 0 0 6.9.5 46.8 46.8 0 0 0 38.2-19.9c.9-1.1 1.7-2.2 2.5-3.4a51.8 51.8 0 0 0 5.3-10.3 50.6 50.6 0 0 0 2.9-24.7l.2 1a51 51 0 0 1 .1 20.2z"></path></g><g id="SvgjsG4759" featureKey="symbolFeature-0" transform="matrix(0.875,0,0,0.875,11.25,13.25)" fill="url(#SvgjsLinearGradient4764)"><path xmlns="http://www.w3.org/2000/svg" d="M35,65.833c0-8.587,3.535-16.36,9.219-21.956c-3.063-1.406-6.458-2.21-10.052-2.21C20.82,41.667,10,52.487,10,65.833  C10,79.18,20.82,90,34.167,90c3.594,0,6.988-0.804,10.052-2.21C38.535,82.194,35,74.421,35,65.833z"></path><path xmlns="http://www.w3.org/2000/svg" d="M65.833,65c-8.587,0-16.36-3.535-21.956-9.222c-1.406,3.066-2.21,6.461-2.21,10.055C41.667,79.18,52.487,90,65.833,90  C79.18,90,90,79.18,90,65.833c0-3.594-0.804-6.988-2.21-10.055C82.194,61.465,74.421,65,65.833,65z"></path><path xmlns="http://www.w3.org/2000/svg" d="M65.833,10c-3.594,0-6.988,0.804-10.055,2.21C61.465,17.806,65,25.579,65,34.167c0,8.587-3.535,16.36-9.222,21.956  c3.066,1.406,6.461,2.21,10.055,2.21C79.18,58.333,90,47.513,90,34.167C90,20.82,79.18,10,65.833,10z"></path><path xmlns="http://www.w3.org/2000/svg" d="M34.167,35c8.587,0,16.36,3.535,21.956,9.219c1.406-3.063,2.21-6.458,2.21-10.052C58.333,20.82,47.513,10,34.167,10  C20.82,10,10,20.82,10,34.167c0,3.594,0.804,6.988,2.21,10.052C17.806,38.535,25.579,35,34.167,35z"></path></g><g id="SvgjsG4760" featureKey="nameFeature-0" transform="matrix(1.4970283179252672,0,0,1.4970283179252672,126.90415949829816,19.568647928913997)" fill="#4338ca"><path d="M37.24 10.16 l4.6 0 l-9.52 29.84 l-4.72 0 l-5.76 -17.64 l-5.6 17.64 l-4.72 0 l-10.12 -29.84 l4.48 0 l7.92 22.32 l5.6 -17.6 l-1.52 -4.72 l4.48 0 l7.52 22.32 z M52.986 28.04 l0 7.6 l18.4 0 l0 4.36 l-22.76 0 l0 -29.84 l21 0 l0 4.4 l-16.64 0 l0 9.04 q1.24 -0.72 2.76 -0.96 q1.12 -0.2 2.88 -0.2 l6.52 0 l0 4.44 l-6.52 0 q-1.64 0 -2.88 0.2 q-1.52 0.28 -2.76 0.96 z M83.73200000000001 28.04 l0 11.96 l-4.36 0 l0 -29.84 l21 0 l0 4.4 l-16.64 0 l0 9.04 q1.24 -0.72 2.76 -0.96 q1.12 -0.2 2.88 -0.2 l6.52 0 l0 4.44 l-6.52 0 q-1.64 0 -2.88 0.2 q-1.52 0.28 -2.76 0.96 z M117.47800000000001 13.32 l-1.64 -3.68 l4.8 0 l14.36 30.36 l-4.88 0 l-1.96 -4.36 l-9.08 0 q-2.56 0 -4.6 0.48 q-1.8 0.44 -3 1.16 q-1.08 0.64 -1.44 1.32 l-0.76 1.4 l-4.72 0 z M120.67800000000001 31.240000000000002 l5.52 0 l-6.52 -12.6 l-6.6 14.28 q0.88 -0.76 2.68 -1.2 q2.04 -0.48 4.92 -0.48 z"></path></g>
			</g>
		</svg>
	